<?xml version="1.0" encoding="UTF-8" standalone="no"?>
<!-- Created with Inkscape (http://www.inkscape.org/) -->

<svg
   xmlns:dc="http://purl.org/dc/elements/1.1/"
   xmlns:cc="http://creativecommons.org/ns#"
   xmlns:rdf="http://www.w3.org/1999/02/22-rdf-syntax-ns#"
   xmlns:svg="http://www.w3.org/2000/svg"
   xmlns="http://www.w3.org/2000/svg"
   xmlns:sodipodi="http://sodipodi.sourceforge.net/DTD/sodipodi-0.dtd"
   xmlns:inkscape="http://www.inkscape.org/namespaces/inkscape"
   width="120"
   height="120"
   viewBox="0 0 31.749999 31.750001"
   version="1.1"
   id="svg44"
   inkscape:version="0.92.4 (5da689c313, 2019-01-14)"
   sodipodi:docname="favicon.svg">
  <defs
     id="defs38" />
  <sodipodi:namedview
     id="base"
     pagecolor="#ffffff"
     bordercolor="#666666"
     borderopacity="1.0"
     inkscape:pageopacity="0.0"
     inkscape:pageshadow="2"
     inkscape:zoom="2.8"
     inkscape:cx="89.80227"
     inkscape:cy="59.527739"
     inkscape:document-units="mm"
     inkscape:current-layer="layer1"
     showgrid="false"
     units="px"
     inkscape:window-width="1366"
     inkscape:window-height="711"
     inkscape:window-x="0"
     inkscape:window-y="31"
     inkscape:window-maximized="1" />
  <metadata
     id="metadata41">
    <rdf:RDF>
      <cc:Work
         rdf:about="">
        <dc:format>image/svg+xml</dc:format>
        <dc:type
           rdf:resource="http://purl.org/dc/dcmitype/StillImage" />
        <dc:title></dc:title>
      </cc:Work>
    </rdf:RDF>
  </metadata>
  <g
     inkscape:label="Layer 1"
     inkscape:groupmode="layer"
     id="layer1"
     transform="translate(0,-265.24998)">
    <g
       transform="matrix(0.234375,0,0,0.234375,-10.771487,254.1996)"
       id="g945"
       inkscape:export-xdpi="95.999985"
       inkscape:export-ydpi="95.999985">
      <path
         inkscape:connector-curvature="0"
         id="path4684"
         d="m 133.32282,78.704003 v 1.615641 c -8.4622,16.634636 -32.1252,14.531083 -39.31075,0 l -0.0044,-1.554216 A 41.136661,41.136693 0 0 0 77.895264,94.860327 h 1.053645 c 16.634623,8.462213 14.531072,32.125313 0,39.310873 l -1.426864,0.004 a 41.136661,41.136693 0 0 0 16.48119,16.65681 l 0.0085,-2.03269 c 7.185545,-14.53109 30.848545,-16.63464 39.310745,0 v 2.19072 a 41.2401,41.240132 0 0 0 0.3118,-0.18011 41.136661,41.136693 0 0 0 2.83614,-1.72108 41.2401,41.240132 0 0 0 1.4182,-1.01414 41.136661,41.136693 0 0 0 1.63756,-1.23367 41.2401,41.240132 0 0 0 2.33557,-2.05028 41.136661,41.136693 0 0 0 0.4919,-0.45623 41.2401,41.240132 0 0 0 7.50737,-10.02314 h -2.40583 c -16.63462,-8.46221 -14.53107,-32.12523 0,-39.310783 l 2.13804,-0.0085 A 41.2401,41.240132 0 0 0 133.32274,78.704513 Z"
         style="fill:#333333;stroke:none;stroke-width:0.4611311;stroke-miterlimit:4;stroke-dasharray:none;stroke-opacity:1" />
      <g
         transform="matrix(8.495765,0,0,8.4957716,-1026.3248,-977.47401)"
         id="g897">
        <path
           style="fill:#00ff00;stroke:#00ff00;stroke-width:0.06966331;stroke-miterlimit:4;stroke-dasharray:none;stroke-opacity:0"
           d="m 139.75381,130.89847 a 5.9652955,5.9650658 0 0 1 -1.10898,1.73271 l 0.5948,0.55604 a 1.1160632,1.1160632 0 0 1 0.51831,-0.12868 1.1160632,1.1160632 0 0 1 1.11621,1.1157 1.1160632,1.1160632 0 0 1 -1.11621,1.11621 1.1160632,1.1160632 0 0 1 -1.11621,-1.11621 1.1160632,1.1160632 0 0 1 0.19896,-0.63511 l -0.58912,-0.51624 a 5.9652955,5.9650658 0 0 1 -1.69963,1.07435 v 2.41691 h 5.57227 v -5.61568 z"
           id="path878"
           inkscape:connector-curvature="0" />
        <path
           style="fill:#0000ff;stroke:#0000ff;stroke-width:0.06966331;stroke-miterlimit:4;stroke-dasharray:none;stroke-opacity:0"
           d="m 128.75448,130.88762 -2.50527,0.0103 v 5.6162 h 5.6596 l 0.0103,-2.42518 a 5.9652955,5.9650658 0 0 1 -1.69034,-1.09192 l -0.54002,0.57774 a 1.1160631,1.1160631 0 0 1 0.12867,0.51831 1.1160631,1.1160631 0 0 1 -1.11569,1.11622 1.1160631,1.1160631 0 0 1 -1.11621,-1.11622 1.1160631,1.1160631 0 0 1 1.11621,-1.11621 1.1160631,1.1160631 0 0 1 0.6351,0.19896 l 0.50075,-0.57103 a 5.9652955,5.9650658 0 0 1 -1.08262,-1.7172 z"
           id="path876"
           inkscape:connector-curvature="0" />
        <path
           style="fill:#ffff00;stroke:#ffff00;stroke-width:0.06966331;stroke-miterlimit:4;stroke-dasharray:none;stroke-opacity:0"
           d="m 142.12421,120.63863 -5.57227,5.2e-4 v 2.466 a 5.9652955,5.9650658 0 0 1 1.66553,1.04954 l 0.53226,-0.56947 a 1.1160631,1.1160631 0 0 1 -0.12867,-0.51831 1.1160631,1.1160631 0 0 1 1.11569,-1.11621 1.1160631,1.1160631 0 0 1 1.11622,1.11621 1.1160631,1.1160631 0 0 1 -1.11622,1.11621 1.1160631,1.1160631 0 0 1 -0.6351,-0.19896 l -0.48782,0.55656 a 5.9652955,5.9650658 0 0 1 1.11621,1.72444 l 2.39417,-0.0103 z"
           id="path874"
           inkscape:connector-curvature="0" />
        <path
           style="fill:#ff0000;stroke:#ff0000;stroke-width:0.06966331;stroke-miterlimit:4;stroke-dasharray:none;stroke-opacity:0"
           d="m 126.24921,121.76104 0.008,4.49378 h 1.47639 l 1.04438,-0.002 a 5.9652955,5.9650658 0 0 1 1.05265,-1.64021 l -0.58808,-0.54932 a 1.1160632,1.1160632 0 0 1 -0.51831,0.12867 1.1160632,1.1160632 0 0 1 -1.1157,-1.11569 1.1160632,1.1160632 0 0 1 1.1157,-1.11621 1.1160632,1.1160632 0 0 1 1.11621,1.11621 1.1160632,1.1160632 0 0 1 -0.19895,0.6351 l 0.57825,0.50695 a 5.9652955,5.9650658 0 0 1 1.69706,-1.09038 v -0.52451 l -0.008,-1.96061 -3.29955,-0.004 h -2.36057 z"
           id="path4686"
           inkscape:connector-curvature="0" />
      </g>
      <text
         id="text909"
         y="118.83181"
         x="104.49477"
         style="font-style:normal;font-weight:normal;font-size:10.83733749px;line-height:1.25;font-family:sans-serif;letter-spacing:0px;word-spacing:0px;fill:#ffffff;fill-opacity:1;stroke:none;stroke-width:0.27093342"
         xml:space="preserve"><tspan
           style="fill:#ffffff;stroke-width:0.27093342"
           y="118.83181"
           x="104.49477"
           id="tspan907"
           sodipodi:role="line">EDI</tspan></text>
    </g>
  </g>
</svg>
